<svg id="Слой_1" data-name="Слой 1" xmlns="http://www.w3.org/2000/svg" viewBox="0 0 119 19"><defs><style>.cls-1{font-size:14px;font-family:MyriadPro-Regular, Myriad Pro;}.cls-1,.cls-5{fill:#fff;}.cls-2{letter-spacing:-0.01em;}.cls-3{letter-spacing:-0.01em;}.cls-4,.cls-6{fill:none;}.cls-4{stroke:#fff;stroke-miterlimit:10;}</style></defs><title>bottom</title><g id="Низ"><text class="cls-1" transform="translate(92.5 14.5)"><tspan class="cls-2">Р</tspan><tspan class="cls-3" x="7.28" y="0">У</tspan><tspan x="14.42" y="0">С</tspan></text><g id="Динамик"><polygon class="cls-4" points="64.43 3.17 66.01 3.17 66.01 15.84 64.43 15.84 62.05 13.02 58.89 13.02 58.89 5.98 62.05 5.98 64.43 3.17"/><path class="cls-4" d="M68.38,6s4,3.52,0,7"/><path class="cls-4" d="M71.15,3.73s6.33,5.63,0,11.26"/><path class="cls-4" d="M73.13,1.76s8.71,5.63,0,15.48"/></g><g id="Вай_Фай" data-name="Вай Фай"><circle class="cls-5" cx="46" cy="14.5" r="2"/><path class="cls-4" d="M33.5,16.5a14,14,0,0,1,14-14H48"/><path class="cls-4" d="M37.5,16.5a10,10,0,0,1,10-10H48"/><path class="cls-4" d="M41,16.5a7,7,0,0,1,7-7"/><polyline class="cls-6" points="33.5 16.5 31.95 16.5 31.95 0.5 47.95 0.5 47.95 2.51"/></g><polyline id="Ещё" class="cls-4" points="3 12 11 5 18 12"/></g></svg>