<svg id="Слой_1" data-name="Слой 1" xmlns="http://www.w3.org/2000/svg" viewBox="0 0 25.8 25.66"><defs><style>.cls-1{fill:#f8da46;}.cls-2{fill:#71d275;}.cls-3{fill:#df4d2b;}.cls-4{fill:#fdfdfd;}.cls-5{fill:#25abd8;}</style></defs><title>chrome</title><g id="Низ"><path class="cls-1" d="M23.75,6.66a10.91,10.91,0,0,1,1.3,3.25,12.11,12.11,0,0,1-1,8.49,12.25,12.25,0,0,1-9,6.73,9.28,9.28,0,0,1-2.29.18l0-.08q2-3.48,4-7a3.73,3.73,0,0,0,.54-1.05h0s.05,0,.05-.05.11-.16.17-.23a6,6,0,0,0,1.52-3.77A6.1,6.1,0,0,0,15.52,7.2a8.31,8.31,0,0,0-1.67-.53h9.9Z"/><path class="cls-2" d="M17.34,17.2a3.73,3.73,0,0,1-.54,1.05q-2,3.49-4,7l0,.08a4.34,4.34,0,0,1-1,0A12.24,12.24,0,0,1,6.3,23.44,12.26,12.26,0,0,1,.56,14.79,12.24,12.24,0,0,1,2.11,6.51l.08-.1,4.07,7.24A8.3,8.3,0,0,0,7,14.93c.07.16.15.31.23.47a6.21,6.21,0,0,0,9.45,2.33A5.46,5.46,0,0,1,17.34,17.2Z"/><path class="cls-3" d="M7,14.93a8.3,8.3,0,0,1-.76-1.28L2.19,6.41a9.88,9.88,0,0,1,1.6-2.14A12.12,12.12,0,0,1,11.18.45a12.26,12.26,0,0,1,10,3,11.9,11.9,0,0,1,2.49,3,1.79,1.79,0,0,1,.12.24h-9.9a6.85,6.85,0,0,0-2.55.16,6.2,6.2,0,0,0-4.56,6.75C6.79,14,7,14.47,7,14.93Z"/><path class="cls-4" d="M7,14.93c-.07-.46-.23-.89-.28-1.35A6.2,6.2,0,0,1,11.3,6.83a6.85,6.85,0,0,1,2.55-.16,8.31,8.31,0,0,1,1.67.53,6.1,6.1,0,0,1,3.56,6,6,6,0,0,1-1.52,3.77c-.06.07-.11.15-.17.23l-.05.05h0a5.46,5.46,0,0,0-.64.53A6.21,6.21,0,0,1,7.25,15.4C7.17,15.24,7.09,15.09,7,14.93Zm5.86,2.72A4.82,4.82,0,1,0,8.06,12.8,4.81,4.81,0,0,0,12.88,17.65Z"/><path class="cls-2" d="M17.34,17.2l.05-.05S17.38,17.21,17.34,17.2Z"/><path class="cls-5" d="M12.88,17.65a4.82,4.82,0,1,1,4.84-4.76A4.84,4.84,0,0,1,12.88,17.65Z"/></g></svg>