<svg id="Слой_1" data-name="Слой 1" xmlns="http://www.w3.org/2000/svg" xmlns:xlink="http://www.w3.org/1999/xlink" viewBox="0 0 20.5 16"><defs><style>.cls-1{fill:url(#Безымянный_градиент_14);}.cls-2{fill:none;stroke:#8f9297;stroke-miterlimit:10;}.cls-3{fill:#687991;}.cls-4{fill:#fff;}</style><linearGradient id="Безымянный_градиент_14" x1="10.38" y1="4" x2="10.38" y2="1" gradientUnits="userSpaceOnUse"><stop offset="0" stop-color="#cacccd"/><stop offset="1" stop-color="#d3d9e0"/></linearGradient></defs><title>cmd_icon</title><g id="cmd"><g id="Верх_cmd" data-name="Верх cmd"><rect x="1.02" y="4" width="18.72" height="11"/><rect class="cls-1" x="1.02" y="1" width="18.72" height="3"/><rect class="cls-2" x="0.5" y="0.5" width="19.5" height="15"/><rect class="cls-3" x="13.5" y="1" width="1.04" height="1"/><rect class="cls-3" x="15.58" y="1" width="1.04" height="1"/><rect class="cls-3" x="17.66" y="1" width="1.04" height="1"/><rect class="cls-4" x="13.5" y="10" width="2.08" height="1"/><rect class="cls-4" x="2.12" y="7.98" width="3" height="1.04" transform="translate(12.12 4.88) rotate(90)"/><rect class="cls-4" x="9.4" y="6.98" width="3" height="1.04" transform="translate(18.4 -3.4) rotate(90)"/><rect class="cls-4" x="10.44" y="8.98" width="3" height="1.04" transform="translate(21.44 -2.44) rotate(90)"/><rect class="cls-4" x="6.22" y="7" width="1.04" height="1"/><rect class="cls-4" x="6.22" y="9" width="1.04" height="1"/><rect class="cls-4" x="8.3" y="7" width="1.04" height="1"/><rect class="cls-4" x="8.3" y="9" width="1.04" height="1"/><rect class="cls-4" x="4.14" y="10" width="2.08" height="1"/><rect class="cls-4" x="4.14" y="6" width="2.08" height="1"/></g></g></svg>