<svg id="Слой_1" data-name="Слой 1" xmlns="http://www.w3.org/2000/svg" viewBox="0 0 50 50"><defs><style>.cls-1{fill:#acb0bb;}</style></defs><title>defender</title><g id="defender"><g id="top"><path class="cls-1" d="M41.69,14c2.37,0,4.73,0,7.09,0,.55,0,.73.14.72.7,0,1.84,0,3.69,0,5.53,0,.53-.12.73-.69.73q-7.12,0-14.25,0c-.56,0-.73-.15-.72-.7,0-1.85,0-3.7,0-5.54,0-.62.22-.73.76-.72C37,14,39.33,14,41.69,14Z"/><path class="cls-1" d="M33.9,28.92c-2.36,0-4.72,0-7.08,0-.54,0-.73-.12-.72-.69q0-2.8,0-5.61c0-.5.16-.64.63-.64q7.2,0,14.4,0c.45,0,.65.11.64.62,0,1.89,0,3.79,0,5.68,0,.49-.15.64-.64.63C38.72,28.91,36.31,28.92,33.9,28.92Z"/><path class="cls-1" d="M24.67,20.9c-2.37,0-4.73,0-7.09,0-.55,0-.73-.13-.72-.69,0-1.85,0-3.69,0-5.54,0-.52.11-.73.69-.72q7.13,0,14.25,0c.53,0,.74.12.73.69,0,1.85,0,3.7,0,5.54,0,.62-.22.73-.77.72C29.39,20.89,27,20.9,24.67,20.9Z"/><path class="cls-1" d="M24.71,30.1c2.37,0,4.73,0,7.09,0,.54,0,.74.12.73.7,0,1.82,0,3.64,0,5.46,0,.53-.12.73-.69.73q-7.12,0-14.26,0c-.54,0-.72-.14-.71-.7,0-1.83,0-3.65,0-5.47,0-.61.22-.72.77-.72C20,30.12,22.35,30.1,24.71,30.1Z"/><path class="cls-1" d="M41.65,30.1c2.36,0,4.72,0,7.08,0,.56,0,.78.11.77.72,0,1.82,0,3.64,0,5.47,0,.56-.17.7-.72.7q-7.08,0-14.17,0c-.55,0-.78-.12-.77-.74,0-1.82,0-3.64,0-5.46,0-.56.18-.69.72-.69C36.92,30.12,39.29,30.1,41.65,30.1Z"/><path class="cls-1" d="M41.62,45c-2.37,0-4.75,0-7.13,0-2.8,0-5.59,0-8.39,0l-.1-.26c0-2,0-4,0-6,0-.53.29-.53.66-.53h7.09c2.44,0,4.88,0,7.31,0,.59,0,.76.17.75.75,0,2,0,4,0,6Z"/><path class="cls-1" d="M8,14c2.29,0,4.58,0,6.87,0,.54,0,.73.12.72.69,0,1.85,0,3.69,0,5.54,0,.52-.11.73-.69.73q-6.94,0-13.88,0c-.51,0-.69-.13-.68-.65,0-1.87,0-3.74,0-5.61,0-.57.2-.7.73-.69C3.35,14,5.66,14,8,14Z"/><path class="cls-1" d="M7.85,37c-2.26,0-4.53,0-6.79,0-.58,0-.77-.15-.76-.75,0-1.82,0-3.64,0-5.46,0-.49.11-.68.65-.68q7,0,14,0c.47,0,.65.12.65.62,0,1.87,0,3.74,0,5.61,0,.53-.2.66-.7.66C12.53,37,10.19,37,7.85,37Z"/><path class="cls-1" d="M24.48,45l-7.61,0c-2.46,0-4.92,0-7.39,0-.44,0-.66-.07-.65-.59,0-1.9,0-3.8,0-5.69,0-.38.05-.6.51-.6l15,0a1,1,0,0,1,.14,0Z"/><path class="cls-1" d="M16.87,22c2.34,0,4.67,0,7,0,.55,0,.78.13.76.74,0,1.84,0,3.69,0,5.53,0,.52-.15.67-.67.67q-7.16,0-14.31,0c-.58,0-.7-.19-.69-.72q0-2.73,0-5.46c0-.58.15-.77.74-.76C12.1,22,14.48,22,16.87,22Z"/><path class="cls-1" d="M24.92,6c1.5,0,3,0,4.5,0,.44,0,.67.07.66.6,0,1.87,0,3.74,0,5.6,0,.51-.19.62-.66.62q-4.46,0-8.93,0c-.45,0-.66-.1-.65-.61q0-2.8,0-5.61c0-.52.2-.61.65-.6C22,6,23.44,6,24.92,6Z"/><path class="cls-1" d="M44.67,6c1.4,0,2.8,0,4.2,0,.48,0,.63.13.63.62,0,1.87,0,3.74,0,5.61,0,.44-.14.59-.59.59q-4.27,0-8.55,0c-.45,0-.6-.16-.59-.6,0-1.89,0-3.78,0-5.68,0-.42.14-.54.56-.54C41.77,6,43.22,6,44.67,6Z"/><path class="cls-1" d="M5.07,12.79c-1.38,0-2.75,0-4.13,0-.5,0-.64-.16-.63-.63,0-1.88,0-3.75,0-5.62C.3,6.09.47,6,.91,6Q5.08,6,9.26,6c.44,0,.59.12.58.58q0,2.81,0,5.61c0,.5-.15.64-.63.63C7.83,12.77,6.45,12.79,5.07,12.79Z"/><path class="cls-1" d="M3.93,28.92c-1,0-2.06,0-3.09,0-.37,0-.53-.12-.53-.51,0-2,0-3.93,0-5.89,0-.44.2-.53.59-.53,2,0,4,0,6.05,0,.4,0,.56.12.55.55,0,1.94,0,3.88,0,5.82,0,.49-.2.57-.62.56C5.9,28.91,4.92,28.92,3.93,28.92Z"/><path class="cls-1" d="M3.87,45c-1,0-2,0-2.95,0C.5,45,.3,45,.31,44.46c0-1.92,0-3.83,0-5.75,0-.46.16-.58.6-.58q3,0,6,0c.49,0,.63.17.63.64q0,2.81,0,5.61c0,.54-.2.66-.69.64C5.84,45,4.86,45,3.87,45Z"/><path class="cls-1" d="M43.1,25.5c0-1,0-2,0-2.95,0-.42.13-.56.55-.55,1.76,0,3.53,0,5.3,0,.41,0,.56.14.55.56q0,2.91,0,5.82c0,.41-.13.55-.55.55-1.77,0-3.53,0-5.3,0-.42,0-.56-.14-.55-.56C43.11,27.42,43.1,26.46,43.1,25.5Z"/><path class="cls-1" d="M49.49,41.58c0,1,0,1.92,0,2.88,0,.41-.11.56-.54.56q-2.66,0-5.31,0c-.42,0-.55-.14-.55-.55q0-2.88,0-5.76c0-.48.2-.58.62-.57,1.72,0,3.44,0,5.16,0,.5,0,.64.18.62.65C49.47,39.71,49.49,40.65,49.49,41.58Z"/><path class="cls-1" d="M24.48,45V38.2c.18.07.15.23.15.37,0,2,0,4,0,6C24.62,44.75,24.68,44.92,24.48,45Z"/><path class="cls-1" d="M26,44.72l.1.26C25.91,45,26,44.84,26,44.72Z"/><path class="cls-1" d="M41.62,45l.11-.12C41.75,45,41.71,45,41.62,45Z"/></g></g></svg>