<svg id="Слой_1" data-name="Слой 1" xmlns="http://www.w3.org/2000/svg" viewBox="0 0 32.8 26.66"><defs><style>.cls-1{fill:#acb0bb;}</style></defs><title>defender</title><g id="Низ"><path class="cls-1" d="M27.15,6c1.51,0,3,0,4.54,0,.35,0,.47.09.46.45q0,1.77,0,3.54c0,.34-.07.47-.44.47q-4.58,0-9.13,0c-.35,0-.46-.1-.46-.45,0-1.18,0-2.37,0-3.55,0-.39.14-.46.49-.46C24.13,6,25.64,6,27.15,6Z"/><path class="cls-1" d="M22.16,15.52c-1.51,0-3,0-4.53,0-.35,0-.47-.08-.46-.45,0-1.19,0-2.39,0-3.59,0-.31.1-.4.4-.4h9.22c.29,0,.42.07.41.4,0,1.21,0,2.42,0,3.64,0,.31-.1.4-.41.4C25.25,15.51,23.71,15.52,22.16,15.52Z"/><path class="cls-1" d="M16.25,10.39H11.71c-.35,0-.47-.08-.46-.44,0-1.18,0-2.36,0-3.55,0-.33.07-.46.44-.46h9.13c.34,0,.47.08.46.45q0,1.77,0,3.54c0,.4-.14.47-.49.46Z"/><path class="cls-1" d="M16.28,16.28c1.51,0,3,0,4.54,0,.34,0,.47.08.46.45,0,1.16,0,2.33,0,3.49,0,.34-.08.47-.45.47H11.71c-.35,0-.47-.09-.46-.45,0-1.17,0-2.33,0-3.5,0-.39.14-.46.49-.46C13.25,16.29,14.77,16.28,16.28,16.28Z"/><path class="cls-1" d="M27.12,16.28c1.51,0,3,0,4.54,0,.36,0,.5.07.49.46,0,1.17,0,2.33,0,3.5,0,.36-.11.45-.46.45H22.62c-.36,0-.51-.07-.5-.47,0-1.16,0-2.33,0-3.5,0-.36.12-.44.47-.44C24.1,16.29,25.61,16.28,27.12,16.28Z"/><path class="cls-1" d="M27.11,25.8l-4.57,0-5.37,0-.07-.16c0-1.29,0-2.59,0-3.88,0-.33.19-.34.43-.33H22c1.56,0,3.12,0,4.68,0,.38,0,.49.11.48.48,0,1.28,0,2.55,0,3.83Z"/><path class="cls-1" d="M5.56,6C7,6,8.49,6,10,5.94c.34,0,.47.08.46.45q0,1.77,0,3.54c0,.33-.07.47-.44.47q-4.46,0-8.89,0c-.33,0-.44-.08-.44-.42,0-1.19,0-2.39,0-3.59,0-.36.13-.44.47-.44C2.6,6,4.08,6,5.56,6Z"/><path class="cls-1" d="M5.48,20.68c-1.45,0-2.9,0-4.34,0-.38,0-.5-.1-.49-.48,0-1.16,0-2.33,0-3.5,0-.31.07-.43.42-.43q4.47,0,8.93,0c.3,0,.42.08.42.4,0,1.19,0,2.39,0,3.59,0,.34-.13.42-.45.42Z"/><path class="cls-1" d="M16.13,25.8l-4.87,0H6.53c-.29,0-.43,0-.42-.38,0-1.22,0-2.43,0-3.64,0-.24,0-.39.33-.39l9.6,0,.09,0Z"/><path class="cls-1" d="M11.26,11.09h4.48c.36,0,.5.08.49.47q0,1.77,0,3.54c0,.33-.09.43-.42.43H6.64c-.37,0-.45-.13-.44-.46,0-1.17,0-2.33,0-3.5,0-.37.1-.49.47-.49C8.2,11.1,9.73,11.09,11.26,11.09Z"/><path class="cls-1" d="M16.41.84h2.88c.28,0,.43.05.42.38,0,1.2,0,2.4,0,3.6,0,.32-.12.39-.41.39H13.58c-.29,0-.43-.07-.42-.39,0-1.2,0-2.4,0-3.59,0-.34.13-.39.42-.39C14.52.85,15.47.84,16.41.84Z"/><path class="cls-1" d="M29.05.84c.9,0,1.8,0,2.7,0,.3,0,.4.09.4.4,0,1.2,0,2.39,0,3.59,0,.28-.09.38-.38.38H26.29c-.29,0-.38-.1-.38-.38,0-1.22,0-2.43,0-3.64,0-.27.1-.35.36-.35C27.2.85,28.13.84,29.05.84Z"/><path class="cls-1" d="M3.7,5.19c-.88,0-1.76,0-2.64,0-.32,0-.41-.11-.41-.41,0-1.19,0-2.39,0-3.59C.65.9.76.83,1,.83q2.67,0,5.34,0c.29,0,.38.08.38.37q0,1.8,0,3.6c0,.31-.1.4-.41.4C5.47,5.18,4.59,5.19,3.7,5.19Z"/><path class="cls-1" d="M3,15.52c-.66,0-1.32,0-2,0-.24,0-.34-.08-.33-.33V11.43c0-.28.12-.34.37-.34H4.9c.26,0,.36.08.36.35,0,1.24,0,2.49,0,3.73,0,.31-.13.36-.4.36C4.23,15.51,3.6,15.52,3,15.52Z"/><path class="cls-1" d="M2.94,25.82c-.63,0-1.26,0-1.89,0-.27,0-.4,0-.4-.36,0-1.23,0-2.45,0-3.68,0-.3.11-.37.39-.37H4.86c.31,0,.41.11.4.41,0,1.2,0,2.39,0,3.59,0,.34-.12.42-.44.41C4.2,25.81,3.57,25.82,2.94,25.82Z"/><path class="cls-1" d="M28.05,13.33c0-.63,0-1.26,0-1.89,0-.27.09-.35.35-.35h3.4c.27,0,.36.09.36.36,0,1.24,0,2.48,0,3.72,0,.27-.09.36-.36.36H28.4c-.27,0-.36-.09-.36-.36C28.06,14.56,28.05,13.94,28.05,13.33Z"/><path class="cls-1" d="M32.14,23.63c0,.61,0,1.23,0,1.84,0,.26-.08.36-.35.36H28.39c-.26,0-.35-.09-.35-.36,0-1.22,0-2.45,0-3.68,0-.31.13-.37.4-.37,1.1,0,2.21,0,3.31,0,.32,0,.41.11.4.41C32.13,22.43,32.14,23,32.14,23.63Z"/><path class="cls-1" d="M16.13,25.8V21.46c.12.05.09.15.09.24v3.87C16.22,25.66,16.26,25.76,16.13,25.8Z"/><path class="cls-1" d="M17.1,25.64l.07.16C17.05,25.79,17.08,25.71,17.1,25.64Z"/><path class="cls-1" d="M27.11,25.8l.06-.07C27.19,25.79,27.16,25.81,27.11,25.8Z"/></g></svg>