<svg id="Слой_1" data-name="Слой 1" xmlns="http://www.w3.org/2000/svg" viewBox="0 0 31.13 25.5"><defs><style>.cls-1{fill:#fde691;}.cls-2{fill:#3ab4e5;}.cls-3{fill:#fbe592;}.cls-4{fill:#fad141;}.cls-5{fill:#faf8eb;}</style></defs><title>explorer</title><g id="Низ"><path class="cls-1" d="M15.19,2.8,28,2.84c1.86,0,2.44.58,2.44,2.48v16.2c0,1.78-.58,2.36-2.33,2.36-.86,0-1.72,0-2.58,0q0-4,0-8a2.78,2.78,0,0,0-3-3.07H8.7a2.74,2.74,0,0,0-3,3.07q0,4,0,8.05h-3A1.77,1.77,0,0,1,.74,22.15c0-5.47,0-10.93,0-16.39a1.49,1.49,0,0,1,.13-.39l10.92,0A1.64,1.64,0,0,0,13.13,5C13.81,4.23,14.5,3.52,15.19,2.8Z"/><path class="cls-2" d="M5.62,23.89q0-4,0-8a2.74,2.74,0,0,1,3-3.07H22.42a2.78,2.78,0,0,1,3,3.07q0,4,0,8c.14,1.06-.36,1.35-1.35,1.24a10.35,10.35,0,0,0-2.36,0c-1,.12-1.47-.21-1.39-1.23,0-1.85,0-3.7.08-5.55,0-.48-.16-.67-.66-.67-2.84,0-5.69,0-8.53,0-.49,0-.67.18-.66.66,0,1.85,0,3.7.06,5.55.13,1.06-.38,1.35-1.37,1.24a10.35,10.35,0,0,0-2.36,0C6,25.23,5.47,25,5.62,23.89Z"/><path class="cls-3" d="M10.7,23.88c0-1.85,0-3.7-.06-5.55,0-.48.17-.66.66-.66,2.84,0,5.69,0,8.53,0,.5,0,.66.19.66.67,0,1.85,0,3.7-.08,5.55Z"/><path class="cls-4" d="M15.19,2.8c-.69.72-1.38,1.43-2.06,2.16a1.64,1.64,0,0,1-1.34.36L.87,5.37A13.2,13.2,0,0,1,.77,2,1.62,1.62,0,0,1,2.53.36c3.09,0,6.18,0,9.27,0A2.12,2.12,0,0,1,13.38,1ZM4,2.24c-.46.13-1.22-.47-1.34.49-.15,1.23.75.73,1.33.77a40.9,40.9,0,0,0,4.29.1c.51,0,.65-.24.66-.69s-.21-.73-.74-.72C6.75,2.23,5.35,2.23,4,2.24Z"/><path class="cls-5" d="M4,2.24c1.4,0,2.8,0,4.2-.05.53,0,.75.2.74.72s-.15.71-.66.69a40.9,40.9,0,0,1-4.29-.1C3.94,3.08,3.94,2.66,4,2.24Z"/><path class="cls-2" d="M4,2.24c0,.42,0,.84,0,1.26-.58,0-1.48.46-1.33-.77C2.73,1.77,3.49,2.37,4,2.24Z"/></g></svg>