<svg id="Слой_1" data-name="Слой 1" xmlns="http://www.w3.org/2000/svg" viewBox="0 0 100 100"><defs><style>.cls-1{fill:#fff;}.cls-2{fill:#e94335;}.cls-3{fill:#34a753;}.cls-4{fill:#4285f3;}.cls-5{fill:#fabb05;}</style></defs><title>google</title><circle class="cls-1" cx="50.5" cy="50.5" r="44.5"/><path class="cls-2" d="M20.6,35.12A33.12,33.12,0,0,1,25.38,28,34.13,34.13,0,0,1,40.32,18,34.72,34.72,0,0,1,65,19.12,33.06,33.06,0,0,1,73.87,25c.17.16.19.25,0,.43q-4.71,4.7-9.4,9.4c-.17.17-.26.17-.43,0a17.8,17.8,0,0,0-9.85-4.7,19.49,19.49,0,0,0-15.14,4,20.76,20.76,0,0,0-7,9.69A1.67,1.67,0,0,1,32,44l-.1-.06-5.12-4Z"/><path class="cls-3" d="M32,57a25.32,25.32,0,0,0,1.52,3.41A20.18,20.18,0,0,0,54,71a19.69,19.69,0,0,0,8.77-3.08l.07,0c1,.82,2.09,1.65,3.15,2.47l7.87,6.1A27.47,27.47,0,0,1,69.14,80a32.42,32.42,0,0,1-12.66,4.39,36.36,36.36,0,0,1-7.73.27,34.23,34.23,0,0,1-28-18.5.52.52,0,0,1-.11-.3L25,62.44Z"/><path class="cls-4" d="M73.83,76.42,66,70.32c-1.06-.82-2.1-1.65-3.15-2.47a20.79,20.79,0,0,0,2.81-2.41,15.89,15.89,0,0,0,3.92-7.58c.07-.32,0-.37-.3-.37H51.49c-.24,0-.31-.06-.31-.31,0-4.2,0-8.41,0-12.62,0-.33.17-.31.39-.31h9.32q11,0,22.09,0c.35,0,.47.07.54.44A39.64,39.64,0,0,1,84,53.13a34.14,34.14,0,0,1-6.3,19A27,27,0,0,1,73.83,76.42Z"/><path class="cls-5" d="M32,57l-7,5.41-4.39,3.4a10.55,10.55,0,0,1-.87-1.79,34.35,34.35,0,0,1,.77-28.8.57.57,0,0,0,.08-.13l6.2,4.82,5.12,4L32,44a27.07,27.07,0,0,0-.84,3.56,20.32,20.32,0,0,0,.66,8.87C31.9,56.6,32,56.81,32,57Z"/></svg>