<svg id="Слой_1" data-name="Слой 1" xmlns="http://www.w3.org/2000/svg" viewBox="0 0 27.13 25.5"><defs><style>.cls-1{fill:#1fbbed;}</style></defs><title>internet</title><g id="Низ"><path class="cls-1" d="M3.77,10.65A4.75,4.75,0,0,1,4.25,9a11.35,11.35,0,0,1,8.06-6.84,10.14,10.14,0,0,1,2.86-.27,1.55,1.55,0,0,0,.67-.14A17.58,17.58,0,0,1,20.43.36a6.19,6.19,0,0,1,3.86.46,2.88,2.88,0,0,1,1.6,2.5A7.89,7.89,0,0,1,25.18,7a1.61,1.61,0,0,0,0,1.51,11,11,0,0,1,1,6.06c0,.22-.11.25-.29.25H10.22c-.31,0-.41.07-.37.39a4.77,4.77,0,0,0,3.26,4.13,5.32,5.32,0,0,0,6.41-2,.31.31,0,0,1,.26-.16h5.84A6.81,6.81,0,0,1,25,18.67a11.25,11.25,0,0,1-8.22,5.94,11,11,0,0,1-6.67-.88.62.62,0,0,0-.59,0,13.56,13.56,0,0,1-4.84,1.49,3.31,3.31,0,0,1-3.11-1.09,3.76,3.76,0,0,1-.71-2.46A12.39,12.39,0,0,1,2,16.36,34.89,34.89,0,0,1,8,7.49c.44-.47.9-.9,1.35-1.35.05,0,.12-.08.1-.18a1.68,1.68,0,0,0-.65.3A22,22,0,0,0,4.44,10a4,4,0,0,1-.68.68Zm11.18,1h4.39c.88,0,.88,0,.68-.88A5.11,5.11,0,0,0,15,7a5.1,5.1,0,0,0-5.22,4.35c0,.28,0,.36.31.36ZM4,17.12A12.34,12.34,0,0,0,2.65,21.5a2.36,2.36,0,0,0,2.12,2.82,7.41,7.41,0,0,0,4.06-1c.15-.08.12-.15,0-.23a1.64,1.64,0,0,1-.22-.14A11.45,11.45,0,0,1,4.93,19,12.58,12.58,0,0,1,4,17.12ZM19,2.68a11.78,11.78,0,0,1,5.59,4.63c.15-.47.3-.86.41-1.25a6.77,6.77,0,0,0,.27-1.34,3.47,3.47,0,0,0-.1-1.36,2.63,2.63,0,0,0-2.82-1.68A9.23,9.23,0,0,0,19,2.68Z"/></g></svg>