<svg id="Слой_1" data-name="Слой 1" xmlns="http://www.w3.org/2000/svg" xmlns:xlink="http://www.w3.org/1999/xlink" viewBox="0 0 89 72"><defs><style>.cls-1{fill:#e2e2e2;stroke:#b0aeaf;stroke-miterlimit:10;}.cls-2{fill:url(#Безымянный_градиент_23);}.cls-3{fill:#fff;}.cls-4{fill:url(#Безымянный_градиент_34);}.cls-5{fill:#d4d4d4;}.cls-6{fill:#a6a6a6;}</style><linearGradient id="Безымянный_градиент_23" x1="44.5" y1="51.64" x2="44.5" y2="5.09" gradientUnits="userSpaceOnUse"><stop offset="0" stop-color="#e40726"/><stop offset="1" stop-color="#8a040b"/></linearGradient><linearGradient id="Безымянный_градиент_34" x1="44.86" y1="64" x2="44.86" y2="56" gradientUnits="userSpaceOnUse"><stop offset="0" stop-color="#b8b6b9"/><stop offset="1" stop-color="#828282"/></linearGradient></defs><title>monitor</title><g id="defender"><g id="Virus"><g id="Scan"><rect class="cls-1" x="1.23" y="0.73" width="86.55" height="55.27" rx="5" ry="5"/><rect class="cls-2" x="4.86" y="5.09" width="79.27" height="46.55"/><rect class="cls-3" x="26.68" y="24" width="36.36" height="8" transform="translate(32.94 -23.52) rotate(45)"/><rect class="cls-3" x="26.68" y="24" width="36.36" height="8" transform="translate(96.39 16.08) rotate(135)"/><rect class="cls-4" x="37.59" y="56" width="14.55" height="8"/><path class="cls-5" d="M23,64H66a5,5,0,0,1,5,5v.09a0,0,0,0,1,0,0H18a0,0,0,0,1,0,0V69A5,5,0,0,1,23,64Z"/><rect class="cls-6" x="17.95" y="69.09" width="53.09" height="2.18"/></g></g></g></svg>