<svg id="Слой_1" data-name="Слой 1" xmlns="http://www.w3.org/2000/svg" viewBox="0 0 27.13 26.5"><defs><style>.cls-1{fill:#2b9dd6;}</style></defs><title>shop</title><g id="Низ"><path class="cls-1" d="M24.52,15.69c0,2.86,0,5.72,0,8.58a.41.41,0,0,1-.33.47c-1.07.37-2.13.77-3.2,1.16a1,1,0,0,1-.58,0L3,22.47c-.31-.06-.39-.18-.39-.49q0-6.32,0-12.62c0-.31.1-.41.38-.46L20.5,5.4a.86.86,0,0,1,.48.06c1.09.39,2.18.8,3.27,1.18a.37.37,0,0,1,.27.41C24.51,9.93,24.52,12.81,24.52,15.69ZM14.33,16H11.88c-.22,0-.31,0-.31.28,0,1.28,0,2.56,0,3.84,0,.19.05.26.25.29,1.67.23,3.33.47,5,.73.24,0,.27,0,.27-.24,0-1.54,0-3.07,0-4.6,0-.23-.05-.31-.29-.3Zm0-.6H16.8c.22,0,.31,0,.3-.29,0-1.46,0-2.91,0-4.37,0-.23-.06-.27-.28-.23-1.64.25-3.29.49-4.93.72-.24,0-.32.08-.32.33q0,1.77,0,3.54c0,.23.06.31.3.3ZM8.7,16h-2c-.22,0-.28.06-.28.28,0,.88,0,1.76,0,2.65,0,.27-.1.6.05.8s.49.12.75.16l3.4.49c.24,0,.31,0,.3-.27q0-1.92,0-3.84c0-.22-.07-.28-.28-.27Zm0-.6h2c.18,0,.24-.06.24-.25V11.51c0-.19,0-.26-.24-.23-1.35.2-2.69.4-4,.58-.19,0-.23.1-.23.27,0,1,0,2,0,3,0,.21.06.28.28.28Z"/><path class="cls-1" d="M7.6,5.56c0-.59,0-1.29.06-2A2.78,2.78,0,0,1,9.48,1.12,8.33,8.33,0,0,1,11.82.56,2.27,2.27,0,0,1,14.6,2.77,23.77,23.77,0,0,1,14.68,6c0,.18-.11.18-.23.21-.69.15-.68.16-.69-.54,0-.9.05-1.79,0-2.68A1.48,1.48,0,0,0,12,1.54a6,6,0,0,0-2.2.55,2.08,2.08,0,0,0-1.27,2c0,1,0,2,0,3,0,.29-.06.4-.36.44-.57.08-.57.1-.57-.46Z"/><path class="cls-1" d="M16.68,4.92A5,5,0,0,0,16.62,4c-.06-.48-.24-.66-.72-.7a2,2,0,0,0-.49,0C15.08,3.39,15,3.24,15,3a.83.83,0,0,0,0-.27c-.08-.22,0-.28.22-.29a5.55,5.55,0,0,1,1.15,0,1.3,1.3,0,0,1,1.15,1.15,9.4,9.4,0,0,1,.14,1.91c0,.15-.06.2-.2.24C16.68,5.86,16.68,5.86,16.68,4.92Z"/><path class="cls-1" d="M11.17,5.85c0-.31,0-.67.07-1A2.15,2.15,0,0,1,12.75,3c.59-.21.57-.22.62.42a.41.41,0,0,1-.31.49,1.44,1.44,0,0,0-1,1.46c0,.37,0,.73,0,1.09,0,.2-.06.29-.27.33-.66.13-.66.14-.66-.54Z"/></g></svg>