<svg id="Слой_1" data-name="Слой 1" xmlns="http://www.w3.org/2000/svg" viewBox="0 0 1920 89"><defs><style>.cls-1{fill:#dee1e6;}.cls-2{fill:#fff;}.cls-19,.cls-20,.cls-24,.cls-26,.cls-27,.cls-3,.cls-4{fill:none;stroke-miterlimit:10;}.cls-3{stroke:#000;}.cls-4{stroke:#3c4043;}.cls-19,.cls-26,.cls-4{stroke-width:2px;}.cls-14,.cls-5{font-size:14px;letter-spacing:0.02em;}.cls-25,.cls-5{fill:#020202;}.cls-14,.cls-25,.cls-5{font-family:SegoeUI-Semilight, Segoe UI;}.cls-6{letter-spacing:0.01em;}.cls-7{letter-spacing:0em;}.cls-8{letter-spacing:0.04em;}.cls-9{letter-spacing:-0.01em;}.cls-10{fill:#f0511b;}.cls-11{fill:#80cb29;}.cls-12{fill:#01adee;}.cls-13{fill:#fabb0a;}.cls-15{fill:#e94335;}.cls-16{fill:#34a753;}.cls-17{fill:#4285f3;}.cls-18{fill:#fabb05;}.cls-19{stroke:#babcbe;}.cls-20,.cls-26,.cls-27{stroke:#5f6368;}.cls-20{stroke-width:1.25px;}.cls-21{fill:#5f6368;}.cls-22{fill:#f2f3f5;}.cls-23{fill:#202124;}.cls-24{stroke:#202124;}.cls-25{font-size:16px;letter-spacing:0.05em;}</style></defs><title>window</title><g id="Линии"><rect class="cls-1" width="1920" height="40"/><rect class="cls-2" y="40" width="1920" height="5"/></g><g id="Правый_бар" data-name="Правый бар"><line class="cls-3" x1="1887" y1="25" x2="1898" y2="14"/><line class="cls-3" x1="1898" y1="25" x2="1887" y2="14"/><rect class="cls-3" x="1831.5" y="15.5" width="9" height="9"/><polyline class="cls-3" points="1834 15.5 1834 13.5 1843 13.5 1843 22.5 1840.5 22.5"/><line class="cls-3" x1="1775.5" y1="19.5" x2="1788.5" y2="19.5"/></g><g id="Плюс"><line class="cls-4" x1="611" y1="11" x2="611" y2="26"/><line class="cls-4" x1="604" y1="18.5" x2="618" y2="18.5"/></g><g id="Вкладка"><path class="cls-2" d="M287,41s9-1,9-9V7s0-7,8-7H576s8-1,8,7V31s0,10,9,10Z"/><text class="cls-5" transform="translate(340.67 24)">Mic<tspan class="cls-6" x="22.42" y="0">r</tspan><tspan x="27.26" y="0">os</tspan><tspan class="cls-7" x="41.53" y="0">o</tspan><tspan class="cls-8" x="49.59" y="0">f</tspan><tspan x="54.24" y="0">t - Official Home </tspan><tspan class="cls-9" x="162.95" y="0">P</tspan><tspan x="170.5" y="0">age</tspan></text><path class="cls-10" d="M319.34,10c0,.07,0,.14,0,.22q0,4.15,0,8.32c0,.17,0,.21-.22.21h-8.34c-.16,0-.2,0-.2-.2q0-4.28,0-8.55Z"/><path class="cls-11" d="M329,10c0,.08,0,.16,0,.23,0,2.77,0,5.54,0,8.3,0,.18,0,.22-.22.22h-8.32c-.17,0-.21,0-.21-.22V10.16a.86.86,0,0,1,0-.16Z"/><path class="cls-12" d="M315,28.4h-4.18c-.16,0-.19-.05-.19-.19q0-4.18,0-8.37c0-.15,0-.2.19-.2h8.38c.14,0,.19,0,.19.17q0,4.2,0,8.39c0,.16-.06.19-.2.19Z"/><path class="cls-13" d="M324.6,19.66h4.2c.15,0,.19,0,.19.18,0,2.79,0,5.59,0,8.38,0,.15,0,.19-.19.19q-4.19,0-8.37,0c-.16,0-.19-.05-.19-.19V19.84c0-.15,0-.19.19-.19Z"/></g><text class="cls-14" transform="translate(55.67 24)">Google</text><circle class="cls-2" cx="35.5" cy="19.5" r="10.5"/><path class="cls-15" d="M28.45,15.87a7.93,7.93,0,0,1,1.12-1.68,8.06,8.06,0,0,1,3.53-2.35A7.56,7.56,0,0,1,35,11.45a7.94,7.94,0,0,1,3.93.65A7.63,7.63,0,0,1,41,13.47c.05,0,.05.06,0,.1L38.8,15.79s-.06,0-.1,0a4.14,4.14,0,0,0-2.33-1.11,4.58,4.58,0,0,0-3.57.93,5,5,0,0,0-1.64,2.29l0,.05,0,0L29.91,17Z"/><path class="cls-16" d="M31.14,21a5.27,5.27,0,0,0,.36.81,4.81,4.81,0,0,0,3,2.37,5,5,0,0,0,1.81.11,4.81,4.81,0,0,0,2.07-.73,0,0,0,0,0,0,0l.75.59L41,25.62a7,7,0,0,1-1.1.84,7.56,7.56,0,0,1-3,1,9.21,9.21,0,0,1-1.82.07,8.07,8.07,0,0,1-6.61-4.37.09.09,0,0,1,0-.07l1-.8Z"/><path class="cls-17" d="M41,25.62l-1.85-1.44-.75-.59a4,4,0,0,0,.67-.57A3.67,3.67,0,0,0,40,21.24c0-.08,0-.09-.07-.09H35.73s-.07,0-.07-.07v-3c0-.08,0-.07.09-.07h7.41c.08,0,.11,0,.13.1a8.84,8.84,0,0,1,.11,2,8,8,0,0,1-1.48,4.47A6,6,0,0,1,41,25.62Z"/><path class="cls-18" d="M31.14,21l-1.65,1.28-1,.8a3.29,3.29,0,0,1-.21-.42,8.22,8.22,0,0,1-.61-2.35,8.06,8.06,0,0,1,.8-4.45l0,0L29.91,17l1.21.93,0,0a5.72,5.72,0,0,0-.2.84,4.77,4.77,0,0,0,.16,2.09A.83.83,0,0,0,31.14,21Z"/><g id="search_block" data-name="search block"><rect class="cls-2" y="45" width="1920" height="44"/><g id="buttons"><g id="arrow"><polyline class="cls-19" points="27 75 19 67 27 59"/><line class="cls-19" x1="34" y1="67" x2="19" y2="67"/></g><g id="arrow-2" data-name="arrow"><polyline class="cls-19" points="64 75 72 67 64 59"/><line class="cls-19" x1="57" y1="67" x2="72" y2="67"/></g><g id="refresh"><path class="cls-20" d="M109.94,71.26a7.19,7.19,0,1,1-1.68-7.5"/><polygon class="cls-21" points="105 67 111 61 111 67 105 67"/></g></g><g id="search"><rect class="cls-22" x="129" y="50" width="1646" height="34" rx="17" ry="17"/><rect class="cls-23" x="146" y="65" width="10" height="9"/><ellipse class="cls-24" cx="151" cy="65" rx="3.5" ry="4.5"/><text class="cls-25" transform="translate(171.25 74.25)">google.com</text><polygon class="cls-26" points="1753.01 59.44 1755.48 64.45 1761.01 65.25 1757.01 69.16 1757.95 74.67 1753.01 72.06 1748.06 74.67 1749 69.16 1745 65.25 1750.53 64.45 1753.01 59.44"/></g><line class="cls-27" x1="1828" y1="77" x2="1828" y2="58"/><path class="cls-21" d="M1854.8,56h.82l.09,0a11.27,11.27,0,0,1,2,.25,11.68,11.68,0,0,1,3.63,1.46,11.53,11.53,0,0,1,3.76,3.66,11.33,11.33,0,0,1,1.87,5.89.36.36,0,0,0,0,.1v.84a.43.43,0,0,0,0,.11,8.15,8.15,0,0,1-.15,1.47,11.17,11.17,0,0,1-1,3.14,11.79,11.79,0,0,1-10.36,6.66,11.39,11.39,0,0,1-2.79-.27,11.55,11.55,0,0,1-3.61-1.45,11.7,11.7,0,0,1-4.08-4.16,11.56,11.56,0,0,1-1.52-4.7,10.37,10.37,0,0,1-.06-1.67,13.17,13.17,0,0,1,.32-2.34,11.77,11.77,0,0,1,11-9Zm-7,19.29a10.5,10.5,0,0,0,14.8,0,8,8,0,0,0-14.8,0ZM1851,64.85a4.22,4.22,0,1,0,4.21-4.21A4.23,4.23,0,0,0,1851,64.85Z"/><circle class="cls-21" cx="1894" cy="63" r="2"/><circle class="cls-21" cx="1894" cy="69" r="2"/><circle class="cls-21" cx="1894" cy="75" r="2"/></g></svg>