<svg id="Слой_1" data-name="Слой 1" xmlns="http://www.w3.org/2000/svg" viewBox="0 0 20.13 21.5"><defs><style>.cls-1{fill:#fdfefe;}</style></defs><title>windows</title><g id="Низ"><path class="cls-1" d="M8.43,14.21c0-.91,0-1.82,0-2.73,0-.23.07-.31.32-.31l10.51.11c.25,0,.28.11.28.31,0,1.59,0,3.18,0,4.77,0,.14,0,.27,0,.41,0,1.21,0,2.42,0,3.63,0,.4,0,.38-.42.3-1.55-.31-3.09-.6-4.64-.89-1.91-.37-3.82-.74-5.74-1.09-.26,0-.31-.17-.31-.4C8.44,17,8.43,15.58,8.43,14.21Z"/><path class="cls-1" d="M.58,16.91c0-.31,0-.62,0-.93q0-2.28,0-4.56c0-.26.07-.33.34-.33q3.13.06,6.27.07c.26,0,.32.09.32.32,0,.91,0,1.82,0,2.73,0,1.3,0,2.6,0,3.9,0,.28,0,.35-.36.29Q4,17.77.9,17.2C.7,17.16.59,17.11.58,16.91Z"/><path class="cls-1" d="M14,10.31c-1.73,0-3.45,0-5.17,0-.29,0-.39-.06-.39-.36q0-3.41,0-6.81c0-.24.06-.34.32-.39,3.47-.65,7-1.31,10.41-2,.3-.06.39,0,.39.29,0,2.93,0,5.85,0,8.78,0,.27-.07.35-.35.35H14Z"/><path class="cls-1" d="M7.52,6.66c0,1.11,0,2.22,0,3.32,0,.26-.08.34-.35.34l-6.31.07c-.2,0-.27-.05-.27-.25V4.58c0-.2.08-.25.26-.28Q4,3.7,7.2,3.07c.26,0,.33,0,.33.28C7.51,4.45,7.52,5.56,7.52,6.66Z"/></g></svg>